:FULLY-SPECIFIED
:FORCE-ALL-JOINTS-BE-3DOF
:DEGREES
272
root 8.32637 16.1822 -25.2008 22.323 70.3931 20.5673
lfemur -24.2245 7.25382 -22.9446
ltibia 0 0 0
lfoot 0 0 0
ltoes 63.43 -0 0
rfemur 0 0 0
rtibia 0 0 0
rfoot 7.5929 -0.897833 -0.0273978
rtoes 0 0 0
lowerback 6.62785 -4.56939 -2.67823
upperback 1.68333 -6.26206 -2.02433
thorax -1.90322 -3.09134 -0.0841148
lowerneck -5.08511 -11.2483 -4.77602
upperneck 0 0 0
head 1.92295 -7.34356 1.98664
lclavicle 0 0 0
lhumerus 0 0 0
lradius 0 0 0
lwrist 20.3075 0 0
lhand 0 0 0
lfingers 0 0 0
lthumb 0 0 0
rclavicle 0 0 0
rhumerus -54.913 3.83058 -96.3697
rradius 46.0062 -0 0
rwrist 23.8727 0 0
rhand 0 0 0
rfingers 0 0 0
rthumb 1.91172 -26.5782 -0.00644624
273
root 8.38245 16.1633 -25.1638 22.8453 70.7272 21.2217
lfemur -24.0435 7.03563 -23.0553
ltibia 0 0 0
lfoot 0 0 0
ltoes 63.595 -0 0
rfemur 0 0 0
rtibia 0 0 0
rfoot 7.42864 -0.669412 -0.00717059
rtoes 0 0 0
lowerback 6.70963 -4.60125 -2.70606
upperback 1.72494 -6.30754 -2.1041
thorax -1.9098 -3.11496 -0.143445
lowerneck -5.00714 -11.302 -4.82368
upperneck 0 0 0
head 1.91087 -7.38017 2.01889
lclavicle 0 0 0
lhumerus 0 0 0
lradius 0 0 0
lwrist 20.3124 0 0
lhand 0 0 0
lfingers 0 0 0
lthumb 0 0 0
rclavicle 0 0 0
rhumerus -55.1533 3.93832 -96.8808
rradius 46.0964 -0 0
rwrist 23.5507 0 0
rhand 0 0 0
rfingers 0 0 0
rthumb 1.79802 -26.5001 -0.00168728
274
root 8.4395 16.1423 -25.1255 23.0313 70.8426 21.4534
lfemur -23.9806 6.96001 -23.0939
ltibia 41.8329 0 0
lfoot -6.34822 -22.6063 0
ltoes 63.6522 0 0
rfemur -54.677 -5.40979 14.4999
rtibia 82.6074 0 0
rfoot 7.37167 -0.590177 0
rtoes 1.37596 0 0
lowerback 6.738 -4.61229 -2.71573
upperback 1.7394 -6.3233 -2.13178
thorax -1.91208 -3.12316 -0.164029
lowerneck -4.98008 -11.3206 -4.84023
upperneck 0.669695 -14.9622 5.62359
head 1.90668 -7.39287 2.03008
lclavicle 3.07285e-14 1.19908e-14 0
lhumerus -44.5846 -35.6402 106.647
lradius 59.1166 0 0
lwrist 20.3141 0 0
lhand 19.7519 15.0959 0
lfingers 7.12502 0 0
lthumb 44.3039 38.8645 0
rclavicle 3.07285e-14 1.19908e-14 0
rhumerus -55.2369 3.9752 -97.0583
rradius 46.1277 0 0
rwrist 23.439 0 0
rhand -24.7442 3.49961 0
rfingers 7.12502 0 0
rthumb 1.75858 -26.473 0
275
root 8.49887 16.1171 -25.0849 23.1743 70.9916 21.8614
lfemur 0 0 0
ltibia 42.2116 -0 0
lfoot -6.56238 -22.9057 0.0193721
ltoes 63.4762 -0 0
rfemur -54.2613 -5.35403 14.8108
rtibia 0 0 0
rfoot 0 0 0
rtoes 0 0 0
lowerback 0 0 0
upperback 1.81488 -6.33635 -2.18386
thorax 0 0 0
lowerneck -4.91646 -11.3459 -4.88683
upperneck 0.743985 -15.0015 5.70809
head 1.93606 -7.41229 2.06402
lclavicle 0 0 0
lhumerus -44.4842 -35.755 106.491
lradius 0 0 0
lwrist 0 0 0
lhand 19.7779 15.1149 0.000148203
lfingers 0 0 0
lthumb 0 0 0
rclavicle 0 0 0
rhumerus 0 0 0
rradius 0 0 0
rwrist 0 0 0
rhand -24.7992 3.09377 0.00675266
rfingers 0 0 0
rthumb 1.70545 -26.8791 0.00652518
276
root 8.5614 16.0859 -25.0413 23.3649 71.1828 22.3929
lfemur 0 0 0
ltibia 42.699 -0 0
lfoot -6.83823 -23.2912 0.0426627
ltoes 63.2496 -0 0
rfemur -53.7257 -5.28556 15.2115
rtibia 0 0 0
rfoot 0 0 0
rtoes 0 0 0
lowerback 0 0 0
upperback 1.91207 -6.35306 -2.25094
thorax 0 0 0
lowerneck -4.83451 -11.3783 -4.94688
upperneck 0.839554 -15.0523 5.81682
head 1.97386 -7.43731 2.1077
lclavicle 0 0 0
lhumerus -44.3543 -35.9025 106.29
lradius 0 0 0
lwrist 0 0 0
lhand 19.8113 15.1393 0.000326337
lfingers 0 0 0
lthumb 0 0 0
rclavicle 0 0 0
rhumerus 0 0 0
rradius 0 0 0
rwrist 0 0 0
rhand -24.8701 2.57131 0.0148717
rfingers 0 0 0
rthumb 1.63698 -27.4018 0.0143707
